<?xml version="1.0" encoding="UTF-8" standalone="no"?>
<!DOCTYPE svg PUBLIC "-//W3C//DTD SVG 1.1//EN" "http://www.w3.org/Graphics/SVG/1.1/DTD/svg11.dtd">
<svg version="1.1" xmlns="http://www.w3.org/2000/svg" xmlns:xlink="http://www.w3.org/1999/xlink" preserveAspectRatio="xMidYMid meet" viewBox="0 0 640 640" width="640" height="640"><defs><path d="M0 0L640 0L640 549.63L0 549.63L0 0Z" id="bLyldfY3X"></path><path d="M178.58 154.24L320 349.92L178.58 545.6L37.16 349.92L178.58 154.24Z" id="ef9ZH5mhO"></path><path d="M461.42 154.24L602.84 349.92L461.42 545.6L320 349.92L461.42 154.24Z" id="e5tSPucRxp"></path><path d="M320 72.75L520.31 349.92L328.89 614.78L128.58 337.62L320 72.75Z" id="bcICHDARA"></path><path d="M320 106.58L414.75 237.69L319.38 369.65L224.63 238.54L320 106.58Z" id="buzZj6Was"></path><path d="M0 335.93L640 335.93L640 885.56L0 885.56L0 335.93Z" id="a2HI3ePdUz"></path><path d="M320 140.24L461.42 335.93L320 531.61L178.58 335.93L320 140.24Z" id="a5ZFMoewah"></path><path d="M-3.33 335.93L636.67 335.93L636.67 885.56L-3.33 885.56L-3.33 335.93Z" id="b1d7ViTPiG"></path></defs><g><g><g><use xlink:href="#bLyldfY3X" opacity="0" fill="#b9005c" fill-opacity="1"></use></g><g><use xlink:href="#ef9ZH5mhO" opacity="1" fill="#ff6272" fill-opacity="1"></use></g><g><use xlink:href="#e5tSPucRxp" opacity="1" fill="#ff6272" fill-opacity="1"></use></g><g><use xlink:href="#bcICHDARA" opacity="1" fill="#ff4457" fill-opacity="1"></use></g><g><use xlink:href="#buzZj6Was" opacity="1" fill="#e23104" fill-opacity="1"></use></g><g><use xlink:href="#a2HI3ePdUz" opacity="1" fill="#2f2d2e" fill-opacity="1"></use></g><g><use xlink:href="#a5ZFMoewah" opacity="1" fill="#ff6272" fill-opacity="1"></use></g><g><use xlink:href="#b1d7ViTPiG" opacity="1" fill="#2f2d2e" fill-opacity="1"></use></g></g></g></svg>